<svg width="445" height="357" viewBox="0 0 445 357" fill="none" xmlns="http://www.w3.org/2000/svg">
<path d="M388.64 196.141C357.72 196.141 331.47 185.191 331.47 161.851V120.951C331.47 97.6105 357.72 87.0805 388.64 87.0805C418.12 87.0805 443.65 97.4105 443.65 120.951V147.391H372.46V162.471C372.46 170.531 379.29 174.041 387.92 174.041C396.55 174.041 403.02 170.94 403.02 163.51V159.17H443.65V162.891C443.65 185.811 418.12 196.141 388.64 196.141ZM372.46 130.25H403.02V120.75C403.02 112.49 396.19 108.981 387.92 108.981C379.29 108.981 372.46 112.49 372.46 120.75V130.25V130.25Z" fill="#201A5B"/>
<path d="M0 85.0405H27.13L46.84 163.67L64.5 84.2405H97.77L116.45 161.271C116.45 161.271 126.82 119.081 137.44 105.101C148.86 90.0705 165.85 69.3905 195.28 80.6305C224.71 91.8605 233.67 127.17 233.67 127.17C233.67 127.17 211.92 97.0805 185.04 105.911C158.17 114.741 147.42 161.271 142.04 194.971C110.82 194.971 96.23 194.971 96.23 194.971L81.39 128.37L65.27 194.161H25.86L0 85.0405Z" fill="#201A5B"/>
<path d="M133.83 45.4705C133.83 45.4705 160.52 -2.4795 194.27 0.100502C227.12 2.6105 241.03 24.0205 252.48 51.9405C263.93 79.8605 286.2 160.141 286.2 160.141L303.06 84.3505H329.14L303.38 194.041H263.93C263.93 194.041 237.21 102.8 230.53 80.3605C223.85 57.9205 204.77 34.5005 185.36 31.0105C165.96 27.5205 149.42 29.5205 133.83 45.4705Z" fill="#201A5B"/>
<path d="M151.23 171.89C150.01 176.09 153.01 132.24 179.44 119.91C202.24 109.27 217.7 122.79 222.74 136.68C227.79 150.56 223.09 165.79 218.61 168.21C218.61 168.21 225.07 156.93 218.48 145.73C211.9 134.53 198.59 128.27 185.72 132.15C176.71 134.88 157.54 150.24 151.23 171.89Z" fill="#201A5B"/>
<path d="M24.875 315V205H58.375L67.625 272.062L76.8125 205H110.625V315H90.5V235.75L77.875 315H58.125L44.75 235.75V315H24.875ZM133.175 315V205H177.175V226.25H155.55V247.688H176.3V268.375H155.55V293.562H178.613V315H133.175ZM198.725 315V205H228.975C236.892 205 242.85 207.208 246.85 211.625C250.85 216 252.85 222.417 252.85 230.875V282.375C252.85 292.792 251.017 300.833 247.35 306.5C243.725 312.167 237.35 315 228.225 315H198.725ZM220.85 295.562H224.663C228.704 295.562 230.725 293.604 230.725 289.688V232.938C230.725 229.271 230.225 226.917 229.225 225.875C228.267 224.792 226.288 224.25 223.288 224.25H220.85V295.562ZM273.65 315V205H294.9V315H273.65ZM342.075 316C334.117 316 327.7 313.521 322.825 308.562C317.992 303.604 315.575 296.667 315.575 287.75V237C315.575 226.333 317.679 218.167 321.888 212.5C326.138 206.833 333.033 204 342.575 204C347.783 204 352.408 204.958 356.45 206.875C360.533 208.792 363.742 211.667 366.075 215.5C368.408 219.292 369.575 224.083 369.575 229.875V248.875H347.7V232.625C347.7 229.333 347.283 227.125 346.45 226C345.617 224.833 344.325 224.25 342.575 224.25C340.533 224.25 339.158 225 338.45 226.5C337.742 227.958 337.388 229.917 337.388 232.375V287.438C337.388 290.479 337.825 292.625 338.7 293.875C339.617 295.125 340.908 295.75 342.575 295.75C344.45 295.75 345.763 294.979 346.513 293.438C347.304 291.896 347.7 289.896 347.7 287.438V267.625H369.825V288.438C369.825 298.104 367.388 305.125 362.513 309.5C357.638 313.833 350.825 316 342.075 316ZM416.125 316C406.083 316 398.833 313.5 394.375 308.5C389.958 303.5 387.75 295.542 387.75 284.625V273.875H409.5V287.625C409.5 290.167 409.875 292.167 410.625 293.625C411.417 295.042 412.771 295.75 414.688 295.75C416.688 295.75 418.062 295.167 418.812 294C419.604 292.833 420 290.917 420 288.25C420 284.875 419.667 282.062 419 279.812C418.333 277.521 417.167 275.354 415.5 273.312C413.875 271.229 411.604 268.812 408.688 266.062L398.812 256.688C391.438 249.729 387.75 241.771 387.75 232.812C387.75 223.438 389.917 216.292 394.25 211.375C398.625 206.458 404.938 204 413.188 204C423.271 204 430.417 206.688 434.625 212.062C438.875 217.438 441 225.604 441 236.562H418.625V229C418.625 227.5 418.188 226.333 417.312 225.5C416.479 224.667 415.333 224.25 413.875 224.25C412.125 224.25 410.833 224.75 410 225.75C409.208 226.708 408.812 227.958 408.812 229.5C408.812 231.042 409.229 232.708 410.062 234.5C410.896 236.292 412.542 238.354 415 240.688L427.688 252.875C430.229 255.292 432.562 257.854 434.688 260.562C436.812 263.229 438.521 266.354 439.812 269.938C441.104 273.479 441.75 277.812 441.75 282.938C441.75 293.271 439.833 301.375 436 307.25C432.208 313.083 425.583 316 416.125 316Z" fill="#201A5B"/>
</svg>
