<svg width="444" height="308" viewBox="0 0 444 308" fill="none" xmlns="http://www.w3.org/2000/svg">
<path d="M23.67 202.781H50.67C66.51 202.781 77.8301 211.981 77.8301 230.841V277.911C77.8301 297.071 66.52 306.12 50.67 306.12H23.67V202.781ZM43.1301 220.591V288.331H50.3701C54.7501 288.331 58.3701 285.46 58.3701 278.67V230.391C58.3701 223.601 54.7501 220.581 50.5301 220.581H43.1301V220.591Z" fill="#201A5B"/>
<path d="M86.27 279.58V229.19C86.27 210.03 99.24 200.98 114.48 200.98C129.57 200.98 142.69 210.18 142.69 229.19V279.58C142.69 298.74 129.57 307.94 114.48 307.94C99.25 307.94 86.27 298.89 86.27 279.58ZM123.08 278.97V229.94C123.08 222.55 119.16 219.23 114.48 219.23C109.8 219.23 105.88 222.55 105.88 229.94V278.97C105.88 286.51 109.65 289.68 114.48 289.68C119.16 289.68 123.08 286.51 123.08 278.97Z" fill="#201A5B"/>
<path d="M185.54 241.86V229.19C185.54 222.4 182.52 219.38 178.15 219.38C173.93 219.38 170.46 222.55 170.46 229.64V279.27C170.46 286.51 173.93 289.68 178 289.68C182.53 289.68 185.54 286.66 185.54 279.72V269.46H204.4V280.47C204.4 299.03 192.48 307.93 178.15 307.93C163.36 307.93 150.84 299.03 150.84 279.72V229.03C150.84 209.87 163.36 200.97 178.15 200.97C192.63 200.97 204.4 209.87 204.4 228.28V241.86H185.54Z" fill="#201A5B"/>
<path d="M226.88 306.13V220.591H209.53V202.791H263.84V220.591H246.19V306.13H226.88Z" fill="#201A5B"/>
<path d="M267.3 279.58V229.19C267.3 210.03 280.27 200.98 295.51 200.98C310.6 200.98 323.72 210.18 323.72 229.19V279.58C323.72 298.74 310.6 307.94 295.51 307.94C280.28 307.94 267.3 298.89 267.3 279.58ZM304.11 278.97V229.94C304.11 222.55 300.19 219.23 295.51 219.23C290.83 219.23 286.91 222.55 286.91 229.94V278.97C286.91 286.51 290.68 289.68 295.51 289.68C300.19 289.68 304.11 286.51 304.11 278.97Z" fill="#201A5B"/>
<path d="M352.39 269.92H351.94V306.13H332.78V202.781H357.82C372.45 202.781 383.77 210.931 383.77 229.331V243.81C383.77 254.97 379.09 262.671 371.55 266.591L388.6 306.12H366.72L352.39 269.92ZM351.94 220.591V252.721H356.16C361.44 252.721 364.31 250.15 364.31 243.67V229.94C364.31 223.3 361.29 220.591 355.71 220.591H351.94Z" fill="#201A5B"/>
<path d="M441.25 233.11H423V228.73C423 221.19 419.83 218.62 415.76 218.62C411.69 218.62 408.97 221.49 408.97 226.92C408.97 234.61 414.25 238.99 422.85 245.02C435.82 254.07 443.22 264.03 443.22 279.72C443.22 297.52 432.96 307.93 416.52 307.93C402.04 307.93 389.67 300.84 389.67 278.96V274.28H408.23V279.26C408.23 287.41 411.4 290.12 416.38 290.12C420.91 290.12 423.77 287.1 423.77 281.22C423.77 272.32 417.58 266.89 410.34 262.06C398.42 254.06 390.28 244.56 390.28 228.42C390.28 211.22 400.69 200.96 416.08 200.96C431.62 200.96 441.27 209.26 441.27 228.57V233.11H441.25Z" fill="#201A5B"/>
<path d="M388.64 196.141C357.72 196.141 331.47 185.191 331.47 161.851V120.951C331.47 97.6106 357.72 87.0806 388.64 87.0806C418.12 87.0806 443.65 97.4106 443.65 120.951V147.391H372.46V162.471C372.46 170.531 379.29 174.041 387.92 174.041C396.55 174.041 403.02 170.941 403.02 163.511V159.171H443.65V162.891C443.65 185.811 418.12 196.141 388.64 196.141ZM372.46 130.251H403.02V120.751C403.02 112.491 396.19 108.981 387.92 108.981C379.29 108.981 372.46 112.491 372.46 120.751V130.251Z" fill="#201A5B"/>
<path d="M0 85.0405H27.13L46.84 163.67L64.5 84.2404H97.77L116.45 161.27C116.45 161.27 126.82 119.08 137.44 105.1C148.86 90.0705 165.85 69.3904 195.28 80.6304C224.71 91.8604 233.67 127.17 233.67 127.17C233.67 127.17 211.92 97.0805 185.04 105.91C158.17 114.74 147.42 161.27 142.04 194.97C110.82 194.97 96.23 194.97 96.23 194.97L81.39 128.37L65.27 194.16H25.86L0 85.0405Z" fill="#201A5B"/>
<path d="M133.83 45.4705C133.83 45.4705 160.52 -2.4795 194.27 0.100502C227.12 2.6105 241.03 24.0205 252.48 51.9405C263.93 79.8605 286.2 160.141 286.2 160.141L303.06 84.3505H329.14L303.38 194.041H263.93C263.93 194.041 237.21 102.8 230.53 80.3605C223.85 57.9205 204.77 34.5005 185.36 31.0105C165.96 27.5205 149.42 29.5205 133.83 45.4705Z" fill="#201A5B"/>
<path d="M151.23 171.89C150.01 176.09 153.01 132.24 179.44 119.91C202.24 109.27 217.7 122.79 222.74 136.68C227.79 150.56 223.09 165.79 218.61 168.21C218.61 168.21 225.07 156.93 218.48 145.73C211.9 134.53 198.59 128.27 185.72 132.15C176.71 134.88 157.54 150.24 151.23 171.89Z" fill="#201A5B"/>
</svg>
