<svg width="200" height="200" viewBox="0 0 200 200" fill="none" xmlns="http://www.w3.org/2000/svg">
<circle cx="100" cy="100" r="100" fill="#D9D9D9"/>
<rect x="49" y="97" width="101" height="65" fill="#12395D"/>
<circle cx="100" cy="67" r="35" fill="url(#paint0_linear_58_186)" stroke="#D9D9D9" stroke-width="10"/>
<path d="M75.9878 135.682H79.3959C81.3953 135.682 82.8242 136.847 82.8242 139.235V145.197C82.8242 147.623 81.3966 148.769 79.3959 148.769H75.9878V135.682ZM78.4441 137.937V146.516H79.358C79.9109 146.516 80.3678 146.153 80.3678 145.293V139.178C80.3678 138.318 79.9109 137.936 79.3782 137.936H78.4441V137.937Z" fill="#7DB0DE"/>
<path d="M83.8896 145.408V139.026C83.8896 136.6 85.5268 135.454 87.4505 135.454C89.3552 135.454 91.0113 136.619 91.0113 139.026V145.408C91.0113 147.835 89.3552 149 87.4505 149C85.5281 149 83.8896 147.854 83.8896 145.408ZM88.536 145.331V139.121C88.536 138.186 88.0412 137.765 87.4505 137.765C86.8597 137.765 86.3649 138.186 86.3649 139.121V145.331C86.3649 146.286 86.8408 146.687 87.4505 146.687C88.0412 146.687 88.536 146.286 88.536 145.331Z" fill="#7DB0DE"/>
<path d="M96.4201 140.631V139.026C96.4201 138.166 96.0389 137.784 95.4873 137.784C94.9546 137.784 94.5166 138.185 94.5166 139.083V145.369C94.5166 146.286 94.9546 146.687 95.4683 146.687C96.0401 146.687 96.4201 146.305 96.4201 145.426V144.127H98.8007V145.521C98.8007 147.871 97.2961 148.999 95.4873 148.999C93.6204 148.999 92.04 147.871 92.04 145.426V139.006C92.04 136.58 93.6204 135.452 95.4873 135.452C97.315 135.452 98.8007 136.58 98.8007 138.911V140.631H96.4201Z" fill="#7DB0DE"/>
<path d="M101.638 148.771V137.937H99.4482V135.683H106.304V137.937H104.076V148.771H101.638Z" fill="#7DB0DE"/>
<path d="M106.74 145.408V139.026C106.74 136.6 108.377 135.454 110.301 135.454C112.206 135.454 113.862 136.619 113.862 139.026V145.408C113.862 147.835 112.206 149 110.301 149C108.379 149 106.74 147.854 106.74 145.408ZM111.387 145.331V139.121C111.387 138.186 110.892 137.765 110.301 137.765C109.71 137.765 109.216 138.186 109.216 139.121V145.331C109.216 146.286 109.691 146.687 110.301 146.687C110.892 146.687 111.387 146.286 111.387 145.331Z" fill="#7DB0DE"/>
<path d="M117.481 144.185H117.424V148.771H115.005V135.682H118.166C120.013 135.682 121.442 136.714 121.442 139.044V140.878C121.442 142.291 120.851 143.267 119.899 143.763L122.051 148.769H119.289L117.481 144.185ZM117.424 137.937V142.006H117.957C118.623 142.006 118.985 141.681 118.985 140.86V139.121C118.985 138.28 118.604 137.937 117.9 137.937H117.424Z" fill="#7DB0DE"/>
<path d="M128.697 139.523H126.394V138.968C126.394 138.013 125.993 137.688 125.48 137.688C124.966 137.688 124.623 138.051 124.623 138.739C124.623 139.713 125.289 140.268 126.375 141.031C128.012 142.177 128.946 143.439 128.946 145.426C128.946 147.68 127.651 148.999 125.576 148.999C123.748 148.999 122.187 148.101 122.187 145.33V144.737H124.529V145.368C124.529 146.4 124.929 146.743 125.558 146.743C126.13 146.743 126.491 146.361 126.491 145.616C126.491 144.489 125.709 143.801 124.796 143.189C123.291 142.176 122.264 140.973 122.264 138.929C122.264 136.751 123.578 135.451 125.52 135.451C127.482 135.451 128.7 136.502 128.7 138.948V139.523H128.697Z" fill="#7DB0DE"/>
<path d="M122.056 134.841C118.153 134.841 114.84 133.454 114.84 130.498V125.318C114.84 122.362 118.153 121.029 122.056 121.029C125.777 121.029 129 122.337 129 125.318V128.667H120.014V130.577C120.014 131.597 120.876 132.042 121.965 132.042C123.055 132.042 123.871 131.649 123.871 130.708V130.159H129V130.63C129 133.533 125.777 134.841 122.056 134.841ZM120.014 126.496H123.871V125.293C123.871 124.247 123.009 123.802 121.965 123.802C120.876 123.802 120.014 124.247 120.014 125.293V126.496V126.496Z" fill="#7DB0DE"/>
<path d="M73 120.77H76.4245L78.9124 130.728L81.1416 120.669H85.3411L87.699 130.425C87.699 130.425 89.0079 125.081 90.3484 123.311C91.7899 121.407 93.9345 118.788 97.6493 120.212C101.364 121.634 102.495 126.106 102.495 126.106C102.495 126.106 99.7497 122.295 96.3568 123.413C92.9651 124.532 91.6082 130.425 90.9291 134.693C86.9883 134.693 85.1467 134.693 85.1467 134.693L83.2735 126.258L81.2387 134.59H76.2642L73 120.77Z" fill="#7DB0DE"/>
<path d="M89.8926 115.759C89.8926 115.759 93.2615 109.686 97.5217 110.013C101.668 110.331 103.424 113.042 104.869 116.578C106.315 120.114 109.126 130.281 109.126 130.281L111.254 120.683H114.546L111.294 134.575H106.315C106.315 134.575 102.942 123.019 102.099 120.177C101.255 117.336 98.847 114.369 96.397 113.927C93.9482 113.485 91.8604 113.739 89.8926 115.759Z" fill="#7DB0DE"/>
<path d="M92.0893 131.769C91.9353 132.301 92.314 126.748 95.6502 125.186C98.5281 123.839 100.48 125.551 101.116 127.31C101.753 129.068 101.16 130.997 100.594 131.303C100.594 131.303 101.41 129.875 100.578 128.456C99.7475 127.038 98.0674 126.245 96.4429 126.736C95.3056 127.082 92.8858 129.028 92.0893 131.769Z" fill="#7DB0DE"/>
<defs>
<linearGradient id="paint0_linear_58_186" x1="121.5" y1="52" x2="54" y2="134.5" gradientUnits="userSpaceOnUse">
<stop offset="0.0174105" stop-color="#7DB0DE"/>
<stop offset="1" stop-color="#7DB0DE" stop-opacity="0"/>
</linearGradient>
</defs>
</svg>
