<svg width="1440" height="378" viewBox="0 0 1440 378" fill="none" xmlns="http://www.w3.org/2000/svg">
<path fill-rule="evenodd" clip-rule="evenodd" d="M-2 36.2116C-2 36.2116 1.50972 22.0527 73.7097 6.08288C145.91 -9.88697 232.65 5.82217 359 50.4528C485.35 95.0835 599.667 109.867 720 109.867C840.333 109.867 954 84.8355 1081 57.5734C1208 30.3113 1321.67 50.4528 1381.83 64.694L1442 78.9352V378H1381.83C1321.67 378 1201.33 378 1081 378C960.667 378 840.333 378 720 378C599.667 378 479.333 378 359 378C238.667 378 118.333 378 58.1667 378H-2V36.2116Z" fill="white"/>
</svg>
